<svg width="94" height="98" viewBox="0 0 94 98" fill="none" xmlns="http://www.w3.org/2000/svg">
<path d="M72.279 57C75.2729 57 77.7436 54.5582 77.2777 51.6007C76.2142 44.8508 73.1739 38.5667 68.5178 33.6655C62.6385 27.4768 54.6645 24 46.35 24C38.0355 24 30.0615 27.4768 24.1822 33.6655C19.5261 38.5667 16.4858 44.8508 15.4223 51.6007C14.9564 54.5582 17.4271 57 20.421 57V57C23.4149 57 25.7768 54.5389 26.4865 51.6303C27.3924 47.9175 29.2298 44.492 31.8486 41.7354C35.6946 37.687 40.9109 79.5 46.35 79.5C51.7891 79.5 57.0054 37.687 60.8514 41.7354C63.4702 44.4921 65.3076 47.9175 66.2135 51.6303C66.9232 54.5389 69.2851 57 72.279 57V57Z" fill="#FC2E32"/>
<path d="M89.7773 49C91.6124 49 93.1112 47.5105 92.9931 45.6793C92.2332 33.8966 87.4491 22.7552 79.4658 14.3518C70.736 5.16249 58.8958 1.5492e-06 46.55 0C34.2042 -1.5492e-06 22.364 5.16248 13.6342 14.3518C5.65094 22.7552 0.866818 33.8966 0.106931 45.6792C-0.0111712 47.5105 1.48762 49 3.3227 49V49C5.15778 49 6.63238 47.5101 6.77013 45.6802C7.51733 35.7548 11.5966 26.3893 18.3332 19.2981C25.8168 11.4207 35.9666 6.99516 46.55 6.99516C57.1334 6.99516 67.2833 11.4207 74.7668 19.2981C81.5034 26.3893 85.5827 35.7548 86.3299 45.6802C86.4676 47.5101 87.9422 49 89.7773 49V49Z" fill="#FC2E32"/>
<path d="M20.421 49C17.4271 49 14.9564 51.4418 15.4223 54.3993C16.4858 61.1492 19.5261 67.4333 24.1822 72.3345C30.0615 78.5232 38.0355 82 46.35 82C54.6645 82 62.6385 78.5232 68.5178 72.3345C73.1739 67.4333 76.2142 61.1492 77.2777 54.3993C77.7436 51.4418 75.2729 49 72.279 49V49C69.2851 49 66.9232 51.4611 66.2135 54.3697C65.3076 58.0825 63.4702 61.508 60.8514 64.2646C57.0054 68.313 51.7891 70.5874 46.35 70.5874C40.9109 70.5874 35.6946 68.313 31.8486 64.2646C29.2298 61.5079 27.3924 58.0825 26.4865 54.3697C25.7768 51.4611 23.4149 49 20.421 49V49Z" fill="#32BCDA"/>
</svg>
